<svg xmlns="http://www.w3.org/2000/svg" viewBox="0 0 512 512"><path fill="none" d="m477.805 102.981-67.327 317.515c-5.08 22.41-18.326 27.984-37.15 17.431l-102.585-75.596-49.497 47.607c-5.477 5.478-10.06 10.061-20.617 10.061l7.37-104.479 190.129-171.804c8.268-7.37-1.792-11.454-12.848-4.083l-235.047 148-101.19-31.671c-22.011-6.873-22.408-22.012 4.581-32.568L449.419 70.911c18.325-6.871 34.36 4.083 28.386 32.07z" /><path d="M389.819 453.082c-6.575 0-13.769-2.164-21.383-6.433-.36-.202-.709-.427-1.042-.672l-95.797-70.595-43.353 41.698c-5.775 5.774-12.978 12.918-27.617 12.918a9.998 9.998 0 0 1-9.975-10.704l7.37-104.479a10.003 10.003 0 0 1 3.271-6.717l148.935-134.58-194.666 122.577a10.003 10.003 0 0 1-8.315 1.082l-101.19-31.672c-19.627-6.128-22.91-17.06-23.12-23.03-.282-8.018 4.182-19.452 27.045-28.395l395.843-152.5c4.736-1.776 9.363-2.661 13.836-2.661 9.022 0 16.929 3.631 22.264 10.225 4.812 5.947 9.699 17.007 5.66 35.926l-67.325 317.5-.029.137c-5.992 26.428-21.626 30.374-30.412 30.375zm-11.082-23.591c5.425 2.959 9.01 3.591 11.081 3.591 1.865 0 7.536 0 10.892-14.731l67.313-317.444c1.842-8.628 1.24-15.615-1.647-19.184-1.505-1.86-3.765-2.804-6.715-2.804-2.066 0-4.331.457-6.73 1.356L57.219 232.725c-9.771 3.822-13.369 7.515-14.161 8.964.74.919 3.25 2.943 8.965 4.728l96.79 30.294 231.036-145.476c5.356-3.543 11.187-5.493 16.433-5.493 6.65 0 12.04 3.301 14.064 8.616 1.015 2.663 2.503 9.632-5.564 16.823L217.69 320.239l-6.001 85.075c.761-.723 1.574-1.536 2.484-2.446l.14-.137 49.497-47.607a10 10 0 0 1 12.865-.844l102.062 75.211z" /></svg>