<svg xmlns="http://www.w3.org/2000/svg" viewBox="-5 -5 512 512"><path fill="none" d="M476.387 144.888c-5.291-19.919-20.878-35.608-40.67-40.933C399.845 94.281 256 94.281 256 94.281s-143.845 0-179.718 9.674c-19.792 5.325-35.378 21.014-40.669 40.933-9.612 36.105-9.612 111.438-9.612 111.438s0 75.334 9.612 111.438c5.291 19.92 20.877 34.955 40.669 40.281C112.155 417.719 256 417.719 256 417.719s143.845 0 179.717-9.674c19.792-5.326 35.379-20.361 40.67-40.281 9.612-36.104 9.612-111.438 9.612-111.438s0-75.333-9.612-111.438zM208.954 324.723V187.93l120.226 68.398-120.226 68.395z" style="fill:none;stroke:#000;stroke-width:20;stroke-linecap:round;stroke-linejoin:round;stroke-miterlimit:10"/></svg>